<?xml version="1.0" standalone="no"?>
<!DOCTYPE svg PUBLIC "-//W3C//DTD SVG 1.1//EN" "http://www.w3.org/Graphics/SVG/1.1/DTD/svg11.dtd">
<svg width="100%" height="100%" viewBox="0 0 410 244" version="1.1" xmlns="http://www.w3.org/2000/svg" xmlns:xlink="http://www.w3.org/1999/xlink" xml:space="preserve" style="fill-rule:evenodd;clip-rule:evenodd;stroke-linejoin:round;stroke-miterlimit:1.41421;">
    <g transform="matrix(1,0,0,1,-0.172,-0.454)">
        <path d="M104.881,147.25L75.248,147.25L75.248,243.656L29.818,243.656L29.818,147.25L0.172,147.25L0.172,111.205L104.881,111.205L104.881,147.25Z" style="fill:white;fill-rule:nonzero;"/>
        <rect x="118.641" y="111.205" width="45.004" height="132.451" style="fill:white;"/>
        <path d="M222.51,243.656L181.987,243.656L181.987,111.205L226.989,111.205L252.157,165.166L253.438,165.166L253.438,111.205L281.849,111.205L294.389,142.715L294.389,243.656L250.877,243.656L224.004,191.4L222.51,191.4L222.51,243.656Z" style="fill:white;"/>
        <path d="M409.241,111.205L374.261,196.639L374.261,243.656L328.833,243.656L328.833,196.426L294.919,111.205L337.909,111.205L352.294,159.834L353.573,159.834L367.532,111.205L409.241,111.205Z" style="fill:white;fill-rule:nonzero;"/>
        <path d="M101.319,101.301L101.305,101.301C99.639,101.301 98.12,101.048 96.745,100.545C95.37,100.043 94.121,99.383 92.998,98.571C91.875,97.757 90.869,96.858 89.977,95.868C89.086,94.881 88.292,93.923 87.594,92.992C86.899,92.064 86.297,91.201 85.795,90.41C85.292,89.613 84.865,89.005 84.516,88.577C84.479,88.499 84.4,88.319 84.285,88.027C84.168,87.736 84.051,87.406 83.936,87.038C83.819,86.669 83.713,86.303 83.616,85.936C83.521,85.566 83.471,85.306 83.471,85.151C83.471,83.834 83.742,82.256 84.285,80.415C84.827,78.577 85.573,76.63 86.521,74.578C87.469,72.526 88.582,70.432 89.862,68.306C91.139,66.176 92.496,64.151 93.926,62.235C95.359,60.317 96.843,58.575 98.37,57.006C99.902,55.437 101.402,54.187 102.873,53.259C105.046,54.673 106.868,56.372 107.722,57.168C108.572,57.961 110.911,60.324 112.166,62.088C111.042,62.979 109.778,64.151 108.363,65.604C106.95,67.056 105.517,68.672 104.062,70.454C102.613,72.235 101.188,74.074 99.794,75.973C98.4,77.869 97.19,79.699 96.162,81.462C95.138,83.223 94.336,84.822 93.751,86.255C93.171,87.688 92.959,88.829 93.113,89.682C93.229,90.107 93.414,90.41 93.666,90.582C93.917,90.757 94.373,90.843 95.032,90.843C97.395,90.843 100.125,90.38 103.221,89.449C106.319,88.521 109.553,87.174 112.922,85.411C116.292,83.651 119.69,81.49 123.119,78.935C126.544,76.38 129.76,73.494 132.762,70.28C135.764,67.065 138.435,63.54 140.777,59.708C143.121,55.873 144.911,51.786 146.152,47.45C143.442,47.488 140.866,47.595 138.425,47.77C135.986,47.942 133.662,48.126 131.453,48.322C129.246,48.514 127.135,48.689 125.122,48.845C123.109,48.998 121.153,49.078 119.255,49.078C118.245,49.078 117.164,48.534 116.002,47.45C114.84,46.365 113.755,45.068 112.748,43.557C111.743,42.046 110.91,40.498 110.253,38.911C109.593,37.321 109.264,36.044 109.264,35.077C109.264,32.327 109.971,29.567 111.384,26.799C112.797,24.03 114.695,21.356 117.078,18.782C119.457,16.205 122.219,13.806 125.356,11.578C128.491,9.351 131.791,7.415 135.259,5.769C138.727,4.125 142.259,2.826 145.862,1.878C149.462,0.929 152.891,0.454 156.144,0.454C157.82,1.737 160.915,4.914 162.281,6.632C163.525,8.196 166.107,11.451 167.82,14.105C165.688,13.794 163.121,13.717 160.121,13.872C157.12,14.027 153.955,14.455 150.623,15.149C147.293,15.849 143.933,16.845 140.545,18.143C137.157,19.44 133.993,21.075 131.049,23.053C128.105,25.027 125.511,27.379 123.262,30.109C121.018,32.839 119.391,36.007 118.382,39.608C120.629,39.568 122.662,39.461 124.484,39.287C126.303,39.114 128.067,38.92 129.768,38.707C131.473,38.493 133.217,38.309 134.996,38.157C136.78,38.001 138.753,37.923 140.923,37.923C141.62,37.923 142.375,37.931 143.189,37.951C144.003,37.97 144.815,38.029 145.628,38.126C146.442,38.223 147.215,38.387 147.951,38.62C148.688,38.853 149.287,39.181 149.753,39.608C150.798,40.498 151.806,41.438 152.773,42.425C153.742,43.413 154.614,44.418 155.388,45.446C156.162,46.471 156.782,47.509 157.245,48.553C157.713,49.599 157.943,50.605 157.943,51.575C157.943,54.518 157.209,57.8 155.738,61.421C154.263,65.042 152.222,68.691 149.609,72.371C146.995,76.05 143.907,79.621 140.342,83.09C138.95,84.445 137.509,85.742 136.018,86.981C159.751,77.738 169.906,55.908 169.922,55.873C170,55.681 170.067,55.595 170.125,55.612C170.183,55.633 170.289,55.642 170.444,55.642C171.181,55.759 172.188,56.058 173.467,56.542C174.744,57.025 175.992,57.558 177.212,58.139C178.434,58.719 179.487,59.272 180.379,59.793C181.269,60.318 181.716,60.676 181.716,60.871C181.599,61.141 181.301,61.78 180.815,62.787C180.329,63.795 179.769,65.003 179.131,66.416C178.493,67.832 177.814,69.36 177.099,71.007C176.38,72.653 175.72,74.231 175.121,75.741C174.521,77.252 174.028,78.616 173.641,79.837C173.252,81.057 173.059,81.956 173.059,82.537C173.059,82.692 173.135,82.77 173.291,82.77C173.602,82.77 174.28,82.354 175.327,81.52C176.37,80.69 177.658,79.382 179.186,77.599C180.718,75.819 182.452,73.525 184.39,70.715C186.323,67.908 188.337,64.529 190.429,60.58L192.054,55.989C192.171,55.681 192.425,55.525 192.81,55.525C193.082,55.525 193.671,55.786 194.582,56.309C195.492,56.833 196.459,57.433 197.487,58.111C198.512,58.789 199.433,59.466 200.247,60.144C201.059,60.821 201.505,61.296 201.583,61.566C201.583,61.682 201.563,61.885 201.524,62.176C201.486,62.467 201.427,62.709 201.351,62.903C200.962,63.948 200.515,65.178 200.014,66.591C199.51,68.005 198.997,69.477 198.475,71.007C197.953,72.536 197.437,74.075 196.933,75.625C196.431,77.175 195.975,78.616 195.57,79.952C195.162,81.29 194.834,82.47 194.582,83.497C194.33,84.522 194.204,85.269 194.204,85.733C194.204,85.966 194.321,86.081 194.555,86.081C194.979,86.081 195.628,85.83 196.5,85.327C197.371,84.824 198.366,84.183 199.49,83.409C200.612,82.634 201.799,81.769 203.034,80.795C210.685,74.781 216.572,56.842 217.034,56.456C217.152,56.029 217.257,55.729 217.355,55.554C217.452,55.381 217.655,55.292 217.963,55.292C218.585,55.487 219.336,55.846 220.231,56.367C221.12,56.889 222.002,57.492 222.873,58.169C223.745,58.847 224.527,59.533 225.227,60.23C225.924,60.927 226.406,61.53 226.676,62.032C226.755,62.148 226.744,62.351 226.649,62.641C226.551,62.932 226.445,63.251 226.33,63.6L224.355,69.41C226.445,66.816 228.363,64.676 230.106,62.99C231.846,61.304 233.388,59.969 234.724,58.983C236.06,57.994 237.192,57.308 238.124,56.92C239.05,56.534 239.748,56.339 240.211,56.339C240.834,56.339 241.51,56.57 242.247,57.036C242.983,57.499 243.708,58.062 244.423,58.719C245.14,59.38 245.81,60.057 246.429,60.754C247.048,61.452 247.571,62.013 247.998,62.437C248.422,62.865 248.685,63.321 248.782,63.804C248.877,64.289 248.926,64.781 248.926,65.284C248.926,67.105 248.618,69.091 247.998,71.24C247.377,73.389 246.565,75.519 245.557,77.629C244.551,79.74 243.409,81.745 242.129,83.642C240.853,85.538 239.553,87.146 238.238,88.463C241.366,88.184 247.269,86.246 252.998,84.011C253.042,81.03 253.476,78.283 254.301,75.769C255.172,73.117 256.326,70.726 257.756,68.596C259.192,66.467 260.827,64.587 262.666,62.962C264.504,61.334 266.422,59.98 268.417,58.894C270.411,57.811 272.395,56.997 274.37,56.456C276.347,55.914 278.166,55.642 279.834,55.642C281.032,55.642 282.224,55.989 283.403,56.687C284.586,57.384 285.661,58.237 286.627,59.243C287.598,60.252 288.38,61.304 288.979,62.409C289.583,63.512 289.882,64.473 289.882,65.284C289.882,66.602 289.329,67.947 288.227,69.321C287.122,70.697 285.562,72.101 283.548,73.534C281.536,74.967 279.116,76.429 276.289,77.919C273.459,79.41 270.343,80.912 266.936,82.421C266.819,83.35 266.761,84.261 266.761,85.153C266.761,86.352 267.023,87.166 267.544,87.591C268.069,88.018 269.046,88.23 270.48,88.23C273.035,88.23 275.446,87.805 277.71,86.953C279.978,86.102 282.176,85.027 284.249,83.642C288.035,81.113 291.27,78.042 293.207,76.298C295.142,74.558 300.814,69.049 302.717,67.262L302.72,67.259C301.75,66.678 300.879,66.128 300.104,65.604C299.329,65.081 298.673,64.609 298.128,64.182C297.472,63.717 296.891,63.291 296.385,62.904C296.156,62.787 296.039,62.535 296.039,62.149C296.039,61.722 296.206,61.113 296.533,60.319C296.863,59.524 297.28,58.672 297.784,57.761C298.286,56.853 298.827,55.922 299.407,54.974C299.99,54.026 300.549,53.165 301.092,52.388C301.634,51.614 302.11,50.985 302.514,50.501C302.922,50.017 303.183,49.774 303.3,49.774C303.378,49.774 303.638,49.872 304.082,50.066C304.528,50.258 305.006,50.483 305.508,50.733C306.011,50.985 306.474,51.266 306.901,51.575C307.327,51.885 307.599,52.157 307.716,52.388C307.752,52.583 307.793,52.99 307.832,53.607C307.87,54.229 307.908,54.984 307.948,55.874C309.457,56.65 311.008,57.528 312.596,58.517C314.182,59.505 315.635,60.444 316.952,61.335C318.499,62.343 319.973,63.368 321.366,64.413C321.869,64.724 322.189,65.111 322.325,65.576C322.461,66.04 322.472,66.447 322.353,66.795C321.849,68.306 321.222,70.03 320.466,71.965C319.712,73.903 318.984,75.8 318.288,77.658C317.59,79.519 316.999,81.202 316.515,82.712C316.033,84.223 315.788,85.309 315.788,85.966C315.788,86.197 315.908,86.314 316.138,86.314C316.563,86.314 317.201,86.064 318.058,85.558C318.908,85.056 319.887,84.397 320.991,83.584C322.092,82.77 323.244,81.879 324.446,80.913C325.647,79.943 326.798,78.985 327.902,78.036C329.005,77.088 330.003,76.226 330.892,75.45C331.784,74.675 332.46,74.095 332.927,73.709C333.276,74.056 333.691,74.503 334.174,75.045C334.661,75.587 335.113,76.089 335.541,76.555C334.688,77.408 333.624,78.443 332.347,79.663C331.068,80.882 329.681,82.132 328.194,83.409C326.701,84.687 325.153,85.966 323.544,87.244C321.936,88.521 320.37,89.665 318.839,90.67C317.309,91.679 315.886,92.49 314.57,93.111C313.253,93.731 312.149,94.04 311.258,94.04C310.679,94.04 309.94,93.837 309.051,93.431C308.161,93.023 307.307,92.52 306.497,91.92C305.683,91.318 304.987,90.651 304.404,89.916C303.823,89.18 303.534,88.463 303.534,87.766C304.114,85.172 304.695,82.906 305.276,80.971C305.858,79.032 306.399,77.378 306.901,76.003C307.406,74.628 307.853,73.515 308.239,72.662C308.624,71.812 308.915,71.173 309.11,70.746C308.644,70.552 308.2,70.338 307.774,70.107C307.346,69.875 306.92,69.641 306.497,69.41L306.493,69.414C306.402,69.51 306.306,69.603 306.204,69.695C302.369,73.414 291.881,83.025 288.808,85.327C285.65,87.688 282.64,89.587 279.774,91.02C276.909,92.451 274.169,93.478 271.554,94.097C268.939,94.717 266.393,95.027 263.915,95.027C262.871,95.027 261.709,94.639 260.43,93.866C259.152,93.089 257.959,92.151 256.857,91.048C256.006,90.197 255.265,89.317 254.633,88.408C247.493,91.407 238.92,94.388 233.709,94.388C233.008,94.388 232.138,94.186 231.093,93.778C230.047,93.372 229.03,92.878 228.043,92.298C227.053,91.717 226.204,91.087 225.489,90.41C224.769,89.732 224.413,89.121 224.413,88.579C224.413,88.27 224.616,87.99 225.022,87.738C225.43,87.486 226.018,87.03 226.793,86.372C227.567,85.714 228.499,84.725 229.582,83.409C230.666,82.092 231.885,80.176 233.242,77.658C233.979,76.264 234.673,74.823 235.334,73.331C235.993,71.84 236.571,70.446 237.077,69.147C237.579,67.849 237.976,66.728 238.267,65.778C238.559,64.831 238.705,64.181 238.705,63.831C238.705,63.484 238.654,63.243 238.559,63.106C238.46,62.971 238.374,62.865 238.294,62.787C238.141,62.748 238.006,62.748 237.889,62.787C237.348,62.943 236.254,63.804 234.608,65.373C232.961,66.939 231.035,69.186 228.825,72.11C226.621,75.036 224.276,78.597 221.797,82.801C219.317,87.001 216.976,91.792 214.769,97.177C212.95,102.367 209.736,111.685 209.736,111.685L196.804,111.684C196.804,111.684 201.031,100.653 203.412,94.359C205.039,90.06 206.648,85.756 208.24,81.447C206.585,83.409 203.72,85.956 202.077,87.213C200.429,88.473 198.833,89.596 197.284,90.584C195.734,91.57 194.282,92.375 192.926,92.995C191.572,93.613 190.445,93.922 189.558,93.922C188.897,93.922 188.163,93.719 187.35,93.314C186.537,92.906 185.77,92.383 185.054,91.745C184.339,91.107 183.738,90.401 183.254,89.626C182.768,88.851 182.53,88.115 182.53,87.418C182.53,86.799 182.76,85.616 183.225,83.873C183.69,82.131 184.253,80.099 184.91,77.774C183.168,80.138 181.464,82.217 179.797,84.02C178.132,85.818 176.604,87.36 175.209,88.637C173.815,89.915 172.595,90.951 171.55,91.745C170.503,92.539 169.726,93.11 169.225,93.459C168.915,93.652 168.548,93.796 168.122,93.894C167.696,93.992 167.308,94.039 166.959,94.039C166.224,94.039 165.413,93.816 164.518,93.372C163.63,92.925 162.806,92.375 162.053,91.716C161.295,91.056 160.657,90.321 160.134,89.509C159.61,88.695 159.35,87.921 159.35,87.185C159.35,86.333 159.63,84.919 160.191,82.944C160.753,80.97 161.509,78.608 162.458,75.858C162.704,75.147 162.96,74.414 163.227,73.658C136.983,102.853 102.109,101.339 101.319,101.301L101.319,101.301ZM278.438,62.032C277.661,62.032 276.812,62.449 275.88,63.282C274.954,64.115 274.023,65.208 273.093,66.563C272.164,67.919 271.274,69.477 270.42,71.24C269.569,73.001 268.834,74.831 268.213,76.727C269.648,75.8 271.049,74.812 272.426,73.766C273.798,72.72 275.029,71.626 276.113,70.485C277.198,69.341 278.069,68.169 278.727,66.969C279.386,65.769 279.715,64.568 279.715,63.368C279.715,63.018 279.609,62.709 279.397,62.437C279.183,62.168 278.863,62.032 278.438,62.032L278.438,62.032Z" style="fill:white;"/>
    </g>
</svg>
