<?xml version="1.0" encoding="utf-8"?>
<!-- Generator: Adobe Illustrator 16.0.0, SVG Export Plug-In . SVG Version: 6.00 Build 0)  -->
<!DOCTYPE svg PUBLIC "-//W3C//DTD SVG 1.1//EN" "http://www.w3.org/Graphics/SVG/1.1/DTD/svg11.dtd">
<svg version="1.1" id="Layer_1" xmlns="http://www.w3.org/2000/svg" xmlns:xlink="http://www.w3.org/1999/xlink" x="0px" y="0px"
	 width="16px" height="16px" viewBox="0 0 16 16" enable-background="new 0 0 16 16" xml:space="preserve">
<path fill="#FFFFFF" d="M3.947,7.174L3.947,7.174c-0.065,0-0.125-0.01-0.179-0.029S3.667,7.1,3.623,7.068S3.54,7.001,3.504,6.962
	C3.47,6.924,3.439,6.887,3.412,6.85C3.384,6.814,3.361,6.78,3.341,6.75c-0.02-0.031-0.036-0.055-0.05-0.072
	C3.29,6.675,3.287,6.668,3.282,6.656C3.278,6.645,3.273,6.632,3.269,6.618C3.264,6.604,3.26,6.589,3.256,6.575
	C3.252,6.561,3.25,6.55,3.25,6.544c0-0.052,0.011-0.113,0.032-0.185c0.021-0.072,0.05-0.147,0.087-0.228S3.45,5.97,3.5,5.887
	S3.603,5.725,3.659,5.65c0.056-0.075,0.114-0.143,0.173-0.204C3.892,5.385,3.95,5.336,4.008,5.3
	c0.085,0.055,0.156,0.122,0.189,0.152C4.23,5.483,4.321,5.575,4.371,5.644C4.327,5.679,4.277,5.725,4.222,5.781
	s-0.111,0.12-0.168,0.189S3.942,6.112,3.888,6.186S3.786,6.332,3.746,6.4S3.675,6.531,3.652,6.587
	C3.629,6.643,3.621,6.688,3.627,6.721C3.631,6.738,3.639,6.75,3.648,6.756s0.028,0.01,0.053,0.01c0.092,0,0.199-0.018,0.32-0.055
	C4.143,6.676,4.269,6.623,4.4,6.554c0.132-0.068,0.264-0.153,0.398-0.252s0.259-0.212,0.376-0.338s0.221-0.263,0.312-0.413
	c0.092-0.149,0.162-0.309,0.21-0.478C5.591,5.074,5.491,5.079,5.395,5.085C5.3,5.092,5.209,5.1,5.123,5.107
	C5.037,5.114,4.955,5.121,4.876,5.127C4.797,5.133,4.721,5.137,4.647,5.137c-0.039,0-0.082-0.021-0.127-0.063
	C4.475,5.031,4.433,4.98,4.393,4.921C4.354,4.862,4.321,4.802,4.296,4.74C4.27,4.678,4.257,4.628,4.257,4.59
	c0-0.107,0.027-0.215,0.083-0.323s0.129-0.212,0.222-0.313C4.655,3.854,4.763,3.76,4.885,3.673c0.123-0.086,0.251-0.162,0.386-0.227
	c0.136-0.064,0.273-0.115,0.414-0.152S5.96,3.239,6.087,3.239c0.065,0.05,0.186,0.174,0.239,0.241
	c0.049,0.061,0.149,0.188,0.216,0.292C6.459,3.76,6.359,3.757,6.242,3.763c-0.117,0.006-0.24,0.022-0.371,0.05
	C5.741,3.84,5.61,3.879,5.478,3.929C5.346,3.98,5.222,4.044,5.107,4.121C4.993,4.198,4.891,4.29,4.804,4.396
	c-0.088,0.106-0.151,0.23-0.19,0.371C4.701,4.766,4.78,4.761,4.851,4.754c0.071-0.007,0.14-0.014,0.207-0.022
	S5.192,4.716,5.261,4.71c0.07-0.006,0.147-0.009,0.231-0.009c0.027,0,0.057,0,0.088,0.001c0.032,0.001,0.063,0.003,0.095,0.007
	c0.032,0.004,0.062,0.01,0.091,0.02c0.029,0.009,0.052,0.022,0.07,0.039c0.041,0.035,0.08,0.071,0.118,0.11
	c0.038,0.039,0.072,0.078,0.102,0.118S6.112,5.075,6.13,5.116c0.018,0.041,0.027,0.08,0.027,0.118c0,0.115-0.028,0.243-0.086,0.384
	C6.013,5.76,5.934,5.902,5.832,6.045S5.609,6.329,5.47,6.464C5.416,6.517,5.359,6.567,5.301,6.616
	c0.926-0.361,1.323-1.213,1.323-1.214c0.003-0.008,0.005-0.011,0.008-0.01s0.006,0.001,0.012,0.001
	c0.029,0.005,0.068,0.016,0.118,0.035s0.099,0.04,0.146,0.062c0.048,0.022,0.089,0.044,0.124,0.064
	c0.035,0.021,0.052,0.035,0.052,0.042C7.08,5.607,7.068,5.632,7.049,5.671C7.03,5.711,7.009,5.758,6.984,5.813
	s-0.051,0.115-0.08,0.179C6.876,6.057,6.851,6.118,6.827,6.177C6.804,6.236,6.785,6.289,6.77,6.337
	C6.754,6.384,6.747,6.419,6.747,6.442c0,0.006,0.003,0.009,0.009,0.009c0.012,0,0.039-0.016,0.08-0.049
	C6.876,6.37,6.926,6.319,6.986,6.25C7.046,6.18,7.113,6.09,7.189,5.981c0.076-0.11,0.154-0.242,0.236-0.396l0.063-0.179
	c0.004-0.012,0.014-0.018,0.029-0.018c0.011,0,0.034,0.01,0.069,0.031C7.622,5.439,7.66,5.462,7.7,5.489
	c0.04,0.026,0.076,0.053,0.107,0.079S7.857,5.613,7.86,5.624c0,0.004,0,0.012-0.002,0.023C7.856,5.659,7.854,5.668,7.851,5.676
	C7.836,5.717,7.818,5.765,7.799,5.82s-0.04,0.113-0.06,0.172c-0.021,0.06-0.041,0.12-0.06,0.18c-0.02,0.061-0.038,0.117-0.053,0.169
	C7.609,6.394,7.597,6.439,7.587,6.479S7.572,6.549,7.572,6.567c0,0.009,0.005,0.014,0.014,0.014c0.017,0,0.042-0.01,0.076-0.029
	c0.034-0.02,0.073-0.045,0.117-0.075s0.09-0.064,0.138-0.102c0.299-0.234,0.528-0.935,0.546-0.95
	c0.004-0.017,0.009-0.028,0.013-0.035c0.003-0.007,0.012-0.01,0.023-0.01C8.523,5.387,8.553,5.4,8.588,5.421s0.068,0.044,0.104,0.07
	c0.033,0.026,0.064,0.053,0.092,0.081s0.045,0.051,0.057,0.07c0.002,0.004,0.002,0.012-0.002,0.024
	C8.834,5.677,8.83,5.689,8.826,5.703L8.748,5.93C8.83,5.829,8.904,5.745,8.973,5.68c0.068-0.066,0.129-0.118,0.181-0.157
	S9.25,5.458,9.286,5.442C9.322,5.428,9.35,5.42,9.367,5.42c0.024,0,0.051,0.009,0.08,0.027c0.028,0.018,0.057,0.04,0.084,0.065
	c0.028,0.026,0.055,0.052,0.078,0.08C9.635,5.62,9.654,5.641,9.672,5.658c0.016,0.017,0.026,0.035,0.029,0.053
	C9.705,5.73,9.707,5.75,9.707,5.769c0,0.071-0.012,0.148-0.035,0.232C9.646,6.085,9.615,6.168,9.576,6.25
	C9.537,6.333,9.492,6.411,9.442,6.485S9.342,6.622,9.291,6.673C9.412,6.663,9.643,6.587,9.866,6.5
	c0.002-0.117,0.019-0.224,0.051-0.322c0.034-0.104,0.079-0.197,0.136-0.28c0.055-0.083,0.119-0.157,0.191-0.22
	c0.071-0.063,0.146-0.116,0.225-0.159c0.077-0.042,0.154-0.074,0.231-0.095s0.148-0.032,0.214-0.032
	c0.047,0,0.093,0.014,0.139,0.041c0.047,0.027,0.088,0.061,0.126,0.1c0.038,0.04,0.068,0.081,0.092,0.124s0.035,0.081,0.035,0.112
	c0,0.051-0.021,0.104-0.064,0.157c-0.043,0.054-0.104,0.109-0.183,0.165c-0.078,0.056-0.173,0.113-0.283,0.171
	s-0.232,0.117-0.365,0.175c-0.004,0.037-0.007,0.072-0.007,0.107c0,0.047,0.011,0.079,0.03,0.095
	c0.021,0.017,0.059,0.025,0.115,0.025c0.1,0,0.193-0.017,0.281-0.05c0.09-0.033,0.175-0.075,0.256-0.129
	c0.148-0.099,0.273-0.219,0.35-0.287s0.297-0.283,0.371-0.353l0,0c-0.037-0.023-0.072-0.044-0.102-0.065
	c-0.031-0.02-0.057-0.039-0.078-0.055c-0.025-0.018-0.048-0.035-0.067-0.05c-0.009-0.005-0.014-0.015-0.014-0.03
	c0-0.017,0.007-0.041,0.02-0.071c0.013-0.031,0.028-0.064,0.049-0.1c0.02-0.036,0.04-0.072,0.063-0.109
	c0.022-0.037,0.045-0.071,0.065-0.101s0.04-0.055,0.056-0.074c0.016-0.019,0.025-0.028,0.031-0.028c0.002,0,0.013,0.004,0.029,0.012
	c0.018,0.007,0.037,0.016,0.057,0.026s0.037,0.021,0.054,0.033s0.027,0.023,0.032,0.032c0.001,0.008,0.003,0.023,0.004,0.048
	c0.002,0.024,0.004,0.054,0.005,0.088c0.06,0.03,0.12,0.064,0.182,0.103s0.118,0.075,0.17,0.11c0.06,0.04,0.118,0.08,0.172,0.12
	c0.021,0.012,0.032,0.027,0.038,0.045c0.005,0.018,0.006,0.034,0,0.048c-0.02,0.059-0.043,0.126-0.073,0.202
	c-0.029,0.076-0.058,0.149-0.085,0.222c-0.027,0.072-0.051,0.138-0.068,0.197c-0.02,0.059-0.029,0.101-0.029,0.127
	c0,0.009,0.005,0.014,0.014,0.014c0.018,0,0.042-0.01,0.075-0.03c0.033-0.02,0.071-0.045,0.114-0.077s0.088-0.066,0.135-0.104
	c0.047-0.038,0.092-0.075,0.135-0.112s0.082-0.071,0.117-0.101s0.061-0.053,0.079-0.068c0.014,0.014,0.03,0.031,0.049,0.052
	s0.036,0.041,0.054,0.059c-0.033,0.033-0.075,0.073-0.125,0.121c-0.05,0.047-0.104,0.096-0.162,0.146
	c-0.059,0.05-0.119,0.1-0.182,0.15S12.496,6.72,12.436,6.76c-0.06,0.039-0.115,0.071-0.166,0.095
	c-0.052,0.024-0.095,0.036-0.129,0.036c-0.023,0-0.053-0.008-0.087-0.024c-0.034-0.016-0.067-0.035-0.1-0.059
	s-0.06-0.05-0.081-0.079c-0.023-0.028-0.035-0.057-0.035-0.083c0.023-0.102,0.046-0.19,0.068-0.265
	c0.023-0.076,0.044-0.141,0.063-0.194c0.021-0.054,0.037-0.097,0.052-0.131c0.016-0.033,0.027-0.058,0.035-0.075
	c-0.019-0.007-0.036-0.016-0.053-0.025c-0.017-0.009-0.033-0.018-0.05-0.027l0,0c-0.004,0.004-0.007,0.007-0.011,0.011
	c-0.15,0.146-0.56,0.521-0.68,0.61c-0.123,0.092-0.24,0.166-0.353,0.222c-0.112,0.056-0.219,0.096-0.321,0.12
	c-0.102,0.024-0.201,0.036-0.297,0.036c-0.041,0-0.086-0.015-0.137-0.045c-0.05-0.03-0.096-0.067-0.139-0.11
	C9.984,6.741,9.955,6.707,9.93,6.671C9.651,6.789,9.316,6.905,9.113,6.905c-0.027,0-0.061-0.008-0.102-0.024
	c-0.041-0.016-0.08-0.035-0.119-0.058C8.854,6.8,8.82,6.776,8.793,6.75c-0.028-0.026-0.042-0.05-0.042-0.071
	c0-0.012,0.008-0.023,0.023-0.033c0.017-0.01,0.039-0.027,0.069-0.053c0.03-0.025,0.066-0.064,0.109-0.116
	c0.042-0.051,0.09-0.126,0.143-0.224c0.028-0.055,0.056-0.111,0.082-0.169C9.203,6.025,9.225,5.97,9.245,5.92
	c0.02-0.051,0.035-0.095,0.046-0.132c0.012-0.037,0.018-0.062,0.018-0.076S9.307,5.689,9.303,5.684s-0.007-0.009-0.01-0.013
	c-0.006-0.001-0.012-0.001-0.016,0c-0.021,0.006-0.064,0.04-0.129,0.101C9.084,5.833,9.01,5.921,8.923,6.035
	C8.837,6.149,8.746,6.289,8.648,6.453C8.552,6.616,8.46,6.803,8.375,7.014C8.304,7.216,8.178,7.58,8.178,7.58H7.673
	c0,0,0.165-0.43,0.258-0.676C7.995,6.736,8.058,6.568,8.12,6.4c-0.064,0.076-0.176,0.176-0.24,0.225
	C7.815,6.674,7.752,6.718,7.692,6.756c-0.061,0.039-0.117,0.07-0.17,0.094C7.469,6.875,7.425,6.887,7.391,6.887
	c-0.026,0-0.054-0.008-0.086-0.024c-0.032-0.016-0.062-0.036-0.09-0.061s-0.051-0.053-0.07-0.083S7.116,6.66,7.116,6.633
	c0-0.024,0.009-0.07,0.027-0.139c0.018-0.068,0.04-0.147,0.066-0.238C7.141,6.349,7.075,6.43,7.01,6.5S6.885,6.63,6.831,6.68
	c-0.054,0.05-0.102,0.09-0.143,0.122C6.647,6.833,6.617,6.855,6.597,6.869C6.585,6.876,6.571,6.882,6.554,6.885
	C6.538,6.889,6.522,6.891,6.509,6.891c-0.029,0-0.061-0.009-0.095-0.026C6.379,6.848,6.347,6.826,6.317,6.8
	c-0.03-0.025-0.055-0.054-0.075-0.086c-0.02-0.032-0.03-0.062-0.03-0.091c0-0.033,0.011-0.088,0.033-0.166s0.051-0.169,0.088-0.276
	c0.01-0.028,0.02-0.057,0.03-0.086C5.339,7.235,3.978,7.176,3.947,7.174L3.947,7.174z M10.859,5.642c-0.031,0-0.063,0.016-0.1,0.049
	c-0.037,0.032-0.072,0.075-0.109,0.128c-0.036,0.053-0.07,0.114-0.104,0.183s-0.062,0.14-0.087,0.214
	c0.056-0.036,0.11-0.075,0.165-0.115c0.053-0.041,0.102-0.083,0.144-0.128c0.042-0.044,0.076-0.09,0.103-0.137
	c0.025-0.047,0.038-0.094,0.038-0.141c0-0.014-0.005-0.026-0.013-0.037C10.889,5.647,10.876,5.642,10.859,5.642L10.859,5.642z"/>
</svg>
